HIERARCHY
ROOT Hips
{
  OFFSET 0 0 0
  CHANNELS 6 Xposition Yposition Zposition Zrotation Yrotation Xrotation
  JOINT LeftThigh
  {
    OFFSET 8.409438 0 -5.917753
    CHANNELS 3 Zrotation Yrotation Xrotation
    JOINT LeftLeg
    {
      OFFSET 0 0 -42.358652
      CHANNELS 3 Zrotation Yrotation Xrotation
      JOINT LeftFoot
      {
        OFFSET 0 0 -39.357303
        CHANNELS 3 Zrotation Yrotation Xrotation
      }
    }
  }
  JOINT RightThigh
  {
    OFFSET -8.409438 0 -5.917753
    CHANNELS 3 Zrotation Yrotation Xrotation
    JOINT RightLeg
    {
      OFFSET 0 0 -42.358652
      CHANNELS 3 Zrotation Yrotation Xrotation
      JOINT RightFoot
      {
        OFFSET 0 0 -39.357303
        CHANNELS 3 Zrotation Yrotation Xrotation
      }
    }
  }
  JOINT SpineLow
  {
    OFFSET 0 0 4.719101
    CHANNELS 3 Zrotation Yrotation Xrotation
    JOINT SpineMid
    {
      OFFSET 0 0 12.899191
      CHANNELS 3 Zrotation Yrotation Xrotation
      JOINT Chest
      {
        OFFSET 0 0 12.899191
        CHANNELS 3 Zrotation Yrotation Xrotation
        JOINT LeftShoulder
        {
          OFFSET 7.550562 1.41573 9.438202
          CHANNELS 3 Zrotation Yrotation Xrotation
          JOINT LeftArm
          {
            OFFSET 9.155056 0 4.247191
            CHANNELS 3 Zrotation Yrotation Xrotation
            JOINT LeftForearm
            {
              OFFSET 0 0 25.771955
              CHANNELS 3 Zrotation Yrotation Xrotation
              JOINT LeftHand
              {
                OFFSET 0 0 25.197169
                CHANNELS 3 Zrotation Yrotation Xrotation
              }
            }
          }
        }
        JOINT RightShoulder
        {
          OFFSET -7.550562 1.41573 9.438202
          CHANNELS 3 Zrotation Yrotation Xrotation
          JOINT RightArm
          {
            OFFSET -9.155056 0 4.247191
            CHANNELS 3 Zrotation Yrotation Xrotation
            JOINT RightForearm
            {
              OFFSET 0 0 -25.771955
              CHANNELS 3 Zrotation Yrotation Xrotation
              JOINT RightHand
              {
                OFFSET 0 0 -25.197169
                CHANNELS 3 Zrotation Yrotation Xrotation
              }
            }
          }
        }
        JOINT Neck
        {
          OFFSET 0 0 15.101124
          CHANNELS 3 Zrotation Yrotation Xrotation
          JOINT Head
          {
            OFFSET 0 0 11.325843
            CHANNELS 3 Zrotation Yrotation Xrotation
            End Site
            {
              OFFSET 0 0 14.157303
            }
          }
        }
      }
    }
  }
}
MOTION
Frames: 13
Frame Time: 0.0
0.0  89.887642  0.0  7.669814  -64.909078  -113.997392  42.701003  -48.058228  -23.872889  10.734618  29.778653  63.081305  -1.449384  1.775793  1.037954  -6.039889  10.874349  -36.523291  27.380797  2.04392  69.034637  14.694352  9.139568  -3.921028  2.572248  1.249443  1.126922  7.092908  3.290068  3.211656  7.092908  3.290068  3.211656  -11.562247  19.424804  16.453943  -77.063368  45.071262  -73.900006  -41.110003  17.239323  79.7124  52.847641  17.318498  -2.730562  2.350547  5.684857  22.965626  106.420223  54.698414  17.370255  5.827092  -2.107582  -86.577617  86.006733  -16.331839  -0.625092  2.02225  -5.549508  11.618266  1.622007  -4.125538  8.725384  
0.0  89.887642  0.0  7.127063  -64.841892  -113.474091  42.436105  -48.365375  -23.96  10.800575  29.537506  63.0449  -1.446577  1.76087  1.033737  -6.316156  10.218353  -36.226077  28.056756  1.943806  69.029674  14.741341  9.389762  -3.832863  2.545268  1.290483  1.251758  7.027636  3.390072  3.555897  7.027636  3.390072  3.555897  -11.847845  19.267687  15.729179  -77.530935  44.697878  -74.275754  -41.139109  17.215967  79.732139  53.056865  17.620484  -2.616098  2.288833  5.616174  22.369905  105.260529  53.972479  16.432564  6.544018  -3.110591  -85.896783  86.361015  -15.383103  -0.194843  2.121577  -5.718155  11.07793  1.694492  -4.251909  8.321548  
0.0  89.887642  0.0  6.684915  -64.704151  -113.067758  42.271268  -48.638104  -24.090615  10.720228  29.34775  62.988555  -1.463314  1.754158  1.043501  -6.437513  9.478284  -35.959966  29.019816  1.69435  69.185007  14.731672  9.16582  -3.664738  2.529515  1.320857  1.347712  6.991289  3.46362  3.820594  6.991289  3.463621  3.820594  -12.108187  19.206666  15.269396  -78.071066  44.37707  -74.664814  -41.069876  17.016675  79.794973  53.282819  17.891414  -2.507937  2.186795  5.535399  22.052999  104.360333  53.470346  15.69645  6.979919  -3.753064  -85.305222  86.434723  -14.612241  0.238114  2.147794  -5.827192  10.703735  1.712464  -4.334451  8.04151  
0.0  89.887642  0.0  6.521681  -64.599013  -112.937353  42.238944  -48.780205  -24.191075  10.536836  29.221742  62.894296  -1.449633  1.723634  1.049922  -6.002341  8.955709  -35.802802  29.626908  1.055638  69.765017  14.418477  9.177945  -3.722999  2.551839  1.358694  1.416083  7.058372  3.558191  4.012729  7.058372  3.558191  4.012728  -12.382951  19.120979  15.145219  -78.787425  44.054743  -75.158963  -40.944207  16.717245  79.866757  53.494823  18.142029  -2.445245  2.080425  5.399954  21.84952  103.565279  53.03004  15.05643  7.00954  -3.801765  -84.828643  86.159073  -14.132736  0.490755  2.083492  -5.922592  10.51301  1.664027  -4.407745  7.898069  
0.0  89.887642  0.0  6.736125  -64.609349  -113.112344  42.428169  -48.771974  -24.332388  10.303114  29.070686  62.843678  -1.409515  1.699022  1.047014  -5.421625  8.697432  -35.773575  29.898437  0.259231  70.344261  13.785128  9.45054  -3.821281  2.613717  1.393903  1.462568  7.23248  3.645281  4.146963  7.23248  3.645281  4.146963  -12.585692  19.06265  15.172035  -79.768977  43.830885  -75.727712  -40.824901  16.416145  79.914055  53.611654  18.384825  -2.513314  1.993563  5.261843  21.74788  103.059565  52.667613  14.766521  6.621949  -3.468728  -84.502157  85.826671  -13.921977  0.611599  1.941139  -5.951629  10.434326  1.557035  -4.432197  7.837735  
0.0  89.887642  0.0  6.968762  -64.520424  -113.299616  42.501134  -48.678163  -24.444716  10.103315  28.931016  62.792204  -1.3785  1.691159  1.042245  -5.298005  8.547302  -35.788519  30.128372  -0.34351  70.629383  13.179194  9.660156  -3.834584  2.656081  1.41177  1.486991  7.350912  3.688566  4.218019  7.350912  3.688566  4.218019  -12.610376  19.045931  15.330111  -80.957646  43.732697  -76.320401  -40.793891  16.226361  79.87096  53.636803  18.614638  -2.672131  2.000479  5.309527  21.68739  102.702402  52.309594  14.553919  5.905575  -2.866255  -84.34962  85.530694  -13.874511  0.683066  1.804034  -5.881049  10.496642  1.453683  -4.381408  7.883036  
0.0  89.887642  0.0  7.356963  -64.405846  -113.637816  42.435168  -48.529335  -24.390566  9.999001  28.728262  62.764495  -1.363414  1.685876  1.025369  -5.504085  8.468815  -35.757012  30.461984  -0.428162  70.633669  13.157994  9.769877  -3.817855  2.689316  1.415732  1.485162  7.441985  3.697405  4.215279  7.441984  3.697405  4.215279  -12.427054  19.108161  15.644866  -82.323534  43.754031  -76.90723  -40.896611  16.184983  79.756884  53.657578  18.819009  -2.850608  2.138615  5.500989  21.808837  102.338641  51.995042  14.327623  5.008932  -2.155906  -84.24166  85.372364  -13.796259  0.756345  1.694739  -5.732378  10.687974  1.371052  -4.271257  8.025283  
0.0  89.887642  0.0  7.672568  -64.149892  -113.898142  42.069379  -48.384344  -24.157869  10.057313  28.597438  62.662096  -1.315752  1.683854  1.036322  -6.204057  8.436144  -35.755537  31.013901  -0.250947  70.48683  13.365081  9.723732  -3.86778  2.696208  1.399712  1.461006  7.45839  3.655997  4.147773  7.45839  3.655998  4.147774  -12.215032  19.305563  16.004611  -83.640948  43.877943  -77.427758  -41.084521  16.233949  79.624802  53.699441  18.974334  -2.99526  2.392507  5.825088  22.068632  101.79763  51.726524  13.987468  4.066051  -1.409083  -84.266319  85.19635  -13.720626  0.919761  1.575891  -5.502551  10.985406  1.280695  -4.100211  8.246989  
0.0  89.887642  0.0  7.970122  -63.825769  -114.131818  41.49564  -48.258462  -23.771674  10.315533  28.438834  62.578561  -1.303062  1.667786  1.037965  -7.077441  8.533225  -35.774933  31.522896  -0.038223  70.248299  13.596278  9.616359  -3.96695  2.688931  1.36645  1.419031  7.433947  3.57048  4.02882  7.433948  3.57048  4.028821  -11.901202  19.595599  16.462905  -84.96173  44.015627  -77.876879  -41.283694  16.233039  79.539043  53.712757  19.067402  -3.162332  2.729318  6.207158  22.484704  101.055248  51.541996  13.546058  3.006177  -0.57446  -84.368453  84.858283  -13.557886  1.07743  1.458987  -5.207874  11.346512  1.190916  -3.880447  8.516524  
0.0  89.887642  0.0  8.050725  -63.302088  -114.126094  40.727904  -48.105605  -23.387483  10.636655  28.330578  62.45054  -1.277265  1.659834  1.03666  -8.085902  8.755907  -35.818099  31.894398  0.074251  69.945065  13.785737  9.563924  -4.072261  2.652538  1.316643  1.357568  7.327919  3.443728  3.853272  7.327919  3.443728  3.853272  -11.575194  20.026842  16.972892  -86.087208  44.122221  -78.163388  -41.415462  16.22415  79.568573  53.714449  19.154275  -3.415668  3.091709  6.648041  23.011154  100.144625  51.492326  13.002699  1.979035  0.448897  -84.808474  84.181495  -13.531762  1.458315  1.293219  -4.87211  11.744984  1.063646  -3.630851  8.813789  
0.0  89.887642  0.0  7.928303  -62.692081  -113.919562  40.059076  -47.953612  -23.136736  10.977163  28.165306  62.381233  -1.323497  1.632518  0.990388  -9.035232  9.030093  -35.775457  31.69529  0.271992  69.596561  13.96446  9.590402  -4.107543  2.592803  1.226853  1.267374  7.154475  3.21212  3.593796  7.154475  3.21212  3.593796  -11.145852  20.680177  17.643375  -87.070705  44.145178  -78.328892  -41.495892  16.247573  79.700284  53.723732  19.293313  -3.749724  3.455384  7.202053  23.793345  99.116078  51.593248  12.350424  0.908518  1.326865  -85.404707  83.661901  -13.648894  1.934951  1.120567  -4.43331  12.209826  0.929193  -3.30418  9.160965  
0.0  89.887642  0.0  7.543281  -61.913184  -113.423111  39.623336  -47.744877  -23.198912  11.137977  28.079429  62.219012  -1.341556  1.593028  1.007982  -9.890019  9.345879  -35.651221  31.60831  0.280634  69.112461  13.918821  9.600486  -4.136706  2.499173  1.097084  1.139708  6.885245  2.876566  3.226684  6.885246  2.876566  3.226683  -10.585524  21.5897  18.45899  -87.840242  44.169723  -78.272488  -41.546446  16.352192  79.936751  53.736377  19.551439  -4.319949  3.975278  7.935123  24.80398  97.552055  51.765937  11.267716  -0.022785  1.93235  -86.155528  83.384266  -13.934845  2.722526  0.91934  -3.864623  12.760692  0.770463  -2.880772  9.572726  
0.0  89.887642  0.0  7.048505  -60.985191  -112.775441  39.528781  -47.426607  -23.613422  11.068018  27.977397  62.090633  -1.431672  1.55718  0.975144  -11.847734  9.67131  -35.261153  32.254222  0.0579  67.897618  13.75715  9.507767  -4.142097  2.364596  0.943624  1.009713  6.504322  2.47725  2.850386  6.504322  2.47725  2.850386  -9.908557  22.579664  19.223142  -88.451118  44.121942  -78.10364  -41.485407  16.65353  80.309201  53.814902  19.9899  -5.208246  4.572049  8.810978  25.739952  95.47251  51.952158  9.75905  -0.809154  2.354075  -87.152863  83.161545  -14.462387  3.877189  0.76687  -3.190167  13.235342  0.644532  -2.377345  9.927961  
